<?xml version="1.0" encoding="UTF-8" standalone="no"?>
<svg
   xmlns:dc="http://purl.org/dc/elements/1.1/"
   xmlns:cc="http://creativecommons.org/ns#"
   xmlns:rdf="http://www.w3.org/1999/02/22-rdf-syntax-ns#"
   xmlns:svg="http://www.w3.org/2000/svg"
   xmlns="http://www.w3.org/2000/svg"
   viewBox="0 0 362.30667 39.706669"
   height="60"
   width="547"
   xml:space="preserve"
   id="svg2"
   version="1.1"><metadata
     id="metadata8"><rdf:RDF><cc:Work
         rdf:about=""><dc:format>image/svg+xml</dc:format><dc:type
           rdf:resource="http://purl.org/dc/dcmitype/StillImage" /></cc:Work></rdf:RDF></metadata><defs
     id="defs6"><clipPath
       id="clipPath20"
       clipPathUnits="userSpaceOnUse"><path
         id="path18"
         d="M 0,0 H 2717 V 297.766 H 0 Z" /></clipPath></defs><g
     transform="matrix(1.3333333,0,0,-1.3333333,0,39.706667)"
     id="g10"><g
       transform="scale(0.1)"
       id="g12"><g
         id="g14"><g
           clip-path="url(#clipPath20)"
           id="g16"><path
             id="path22"
             style="fill:#231f20;fill-opacity:1;fill-rule:nonzero;stroke:none"
             d="m 88.4961,38.9844 c 26.5159,0 40.9379,17.1601 40.9379,49.1211 0,30.0195 -17.934,47.1795 -43.6684,47.1795 H 44.4453 V 38.9844 Z M 79.5312,166.477 c 26.8988,0 40.9338,17.929 40.9338,44.05 0,33.137 -19.883,39.766 -44.8361,39.766 H 44.4453 V 166.477 Z M 0,283.82 h 90.0586 c 41.3244,0 74.8514,-18.32 74.8514,-67.441 0,-33.918 -13.254,-54.582 -40.933,-63.164 v -0.774 c 30.41,-5.457 49.902,-23.789 49.902,-70.9566 0,-46.3946 -33.527,-76.02346 -85.7735,-76.02346 L 0,5.46094 V 283.82" /><path
             id="path24"
             style="fill:#231f20;fill-opacity:1;fill-rule:nonzero;stroke:none"
             d="m 204.703,5.46094 h 42.1055 v 278.359 H 204.703 Z" /><path
             id="path26"
             style="fill:#231f20;fill-opacity:1;fill-rule:nonzero;stroke:none"
             d="m 383.27,116.184 c -10.915,-8.575 -34.309,-13.645 -46.786,-19.4926 -12.086,-5.8516 -17.152,-18.332 -17.152,-33.918 0,-17.5468 8.578,-31.582 26.121,-31.582 25.344,0 37.817,19.1016 37.817,49.9024 z m 39.765,-67.0629 c 0,-7.793 4.68,-14.8125 10.914,-14.8125 2.731,0 5.461,0.3906 7.024,1.1719 V 8.18359 c -5.071,-2.33203 -12.477,-5.0664 -20.664,-5.0664 -18.715,0 -34.309,7.41011 -35.481,27.68361 h -0.781 C 372.742,10.1367 356.367,0 331.809,0 c -33.528,0 -54.582,18.7109 -54.582,58.8672 0,46.7888 20.273,56.5348 48.734,65.8908 l 32.746,8.965 c 15.203,4.285 24.563,8.582 24.563,26.902 0,19.102 -6.629,31.191 -28.852,31.191 -28.07,0 -31.969,-19.882 -31.969,-40.156 h -39.761 c 0,44.445 18.324,69.004 73.679,69.004 37.039,0 66.668,-14.422 66.668,-51.465 V 49.1211" /><path
             id="path28"
             style="fill:#231f20;fill-opacity:1;fill-rule:nonzero;stroke:none"
             d="M 603.562,81.875 C 600.836,31.582 583.684,0 531.832,0 c -60.82,0 -77.977,45.2266 -77.977,110.332 0,65.109 17.157,110.332 77.977,110.332 62.77,0.781 72.121,-49.121 72.121,-75.242 h -42.101 c 0,19.488 -5.461,44.832 -30.02,44.051 -30.41,0 -35.871,-32.743 -35.871,-79.141 0,-46.3945 5.461,-79.1406 35.871,-79.1406 23.395,-0.3906 31.969,19.1016 31.969,50.6836 h 39.761" /><path
             id="path30"
             style="fill:#231f20;fill-opacity:1;fill-rule:nonzero;stroke:none"
             d="m 628.93,283.82 h 42.105 V 127.492 h 0.781 l 63.543,87.715 48.739,0.391 -63.16,-81.094 L 792.281,5.46094 H 746.277 L 694.812,100.977 671.035,72.1289 V 5.46094 H 628.93 V 283.82" /><path
             id="path32"
             style="fill:#231f20;fill-opacity:1;fill-rule:nonzero;stroke:none"
             d="m 880.812,33.5273 c 29.239,0 35.473,30.0196 35.473,77.5857 0,56.535 -8.574,76.028 -32.746,76.028 -32.355,0 -38.207,-28.86 -38.207,-79.153 0,-44.8318 6.625,-74.4607 35.48,-74.4607 z M 805.566,283.82 h 42.106 v -93.175 h 0.781 c 7.797,18.71 24.949,30.019 47.563,30.019 31.968,0 64.711,-14.422 64.711,-107.605 C 960.727,40.9375 941.234,0 892.113,0 c -30.019,0 -40.547,17.5508 -46,31.1914 h -0.781 V 5.46094 H 805.566 V 283.82" /><path
             id="path34"
             style="fill:#231f20;fill-opacity:1;fill-rule:nonzero;stroke:none"
             d="m 1087.07,116.184 c -10.91,-8.575 -34.31,-13.645 -46.78,-19.4926 -12.09,-5.8516 -17.16,-18.332 -17.16,-33.918 0,-17.5468 8.57,-31.582 26.12,-31.582 25.34,0 37.82,19.1016 37.82,49.9024 z m 39.76,-67.0629 c 0,-7.793 4.68,-14.8125 10.92,-14.8125 2.73,0 5.46,0.3906 7.02,1.1719 V 8.18359 c -5.07,-2.33203 -12.48,-5.0664 -20.66,-5.0664 -18.71,0 -34.31,7.41011 -35.48,27.68361 h -0.78 C 1076.54,10.1367 1060.17,0 1035.61,0 c -33.53,0 -54.579,18.7109 -54.579,58.8672 0,46.7888 20.269,56.5348 48.729,65.8908 l 32.74,8.965 c 15.21,4.285 24.57,8.582 24.57,26.902 0,19.102 -6.63,31.191 -28.85,31.191 -28.07,0 -31.97,-19.882 -31.97,-40.156 h -39.77 c 0,44.445 18.33,69.004 73.69,69.004 37.03,0 66.66,-14.422 66.66,-51.465 V 49.1211" /><path
             id="path36"
             style="fill:#231f20;fill-opacity:1;fill-rule:nonzero;stroke:none"
             d="m 1273.06,30.0195 h -1.16 C 1261.37,11.3086 1241.49,0 1218.09,0 c -31.18,0 -52.24,14.4258 -52.24,68.6133 V 215.207 h 42.11 V 64.7188 c 0,-23.3907 10.52,-31.1915 28.46,-31.1915 17.93,0 34.31,11.6993 34.31,35.086 V 215.207 h 42.1 V 5.46094 h -39.77 V 30.0195" /><path
             id="path38"
             style="fill:#231f20;fill-opacity:1;fill-rule:nonzero;stroke:none"
             d="m 1418.5,187.141 c -24.17,0 -32.75,-19.493 -32.75,-76.028 0,-47.5661 6.23,-77.5857 35.48,-77.5857 28.85,0 35.47,29.6289 35.47,74.4607 0,50.293 -5.84,79.153 -38.2,79.153 z m 38.2,-155.9496 h -0.77 C 1450.47,17.5508 1439.94,0 1409.92,0 c -49.11,0 -68.61,40.9375 -68.61,113.059 0,93.183 32.75,107.605 64.72,107.605 22.6,0 39.76,-11.309 47.55,-30.019 h 0.79 v 93.175 h 42.09 V 5.46094 H 1456.7 V 31.1914" /><path
             id="path40"
             style="fill:#51ade5;fill-opacity:1;fill-rule:nonzero;stroke:none"
             d="m 1746.41,212.48 c 0,34.309 -15.99,54.973 -49.91,54.973 -33.91,0 -52.62,-22.226 -52.62,-49.902 0,-83.047 134.89,-37.434 134.89,-135.2854 0,-53.8086 -33.54,-81.48435 -84.21,-81.48435 -52.25,0 -81.09,28.06645 -81.09,82.64845 v 8.1914 h 24.95 V 81.0938 c 0,-35.4766 18.71,-59.2579 55.36,-59.2579 35.09,0 60.04,17.5391 60.04,56.5235 0,82.6566 -134.89,35.4806 -134.89,136.4566 0,43.661 28.45,73.68 76.79,73.68 51.86,0 75.64,-26.504 75.64,-76.016 h -24.95" /><path
             id="path42"
             style="fill:#51ade5;fill-opacity:1;fill-rule:nonzero;stroke:none"
             d="m 1811.54,283.82 h 24.95 V 138.008 h 0.78 L 1943.7,283.82 h 26.51 L 1885.22,167.648 1979.57,5.46094 h -26.51 L 1869.63,146.594 1836.49,102.922 V 5.46094 h -24.95 V 283.82" /><path
             id="path44"
             style="fill:#51ade5;fill-opacity:1;fill-rule:nonzero;stroke:none"
             d="M 2050.95,116.965 1975.7,283.82 h 26.52 l 61.21,-138.789 61.2,138.789 h 26.51 L 2075.9,116.965 V 5.46094 h -24.95 V 116.965" /><path
             id="path46"
             style="fill:#231f20;fill-opacity:1;fill-rule:nonzero;stroke:none"
             d="m 2261.5,283.82 h 24.96 V 83.8203 c 0,-41.7109 17.93,-61.9844 54.58,-61.9844 36.65,0 54.59,20.2735 54.59,61.9844 V 283.82 h 24.95 V 83.4297 c 0,-58.4805 -28.47,-82.64845 -79.54,-82.64845 -51.07,0 -79.54,24.16795 -79.54,82.64845 V 283.82" /><path
             id="path48"
             style="fill:#231f20;fill-opacity:1;fill-rule:nonzero;stroke:none"
             d="M 2527.81,125.148 2463.1,5.46094 h -24.96 l 76.42,141.91006 -71.35,136.449 h 26.52 l 59.25,-113.058 60.04,113.058 h 24.95 l -71.73,-136.449 76.8,-141.91006 h -26.51 L 2527.81,125.148" /><path
             id="path50"
             style="fill:#231f20;fill-opacity:1;fill-rule:nonzero;stroke:none"
             d="m 2707.57,297.766 h 9.77 V 250.93 h -5.68 v 41.836 h -0.22 l -16.95,-41.836 h -3.41 l -16.93,41.836 h -0.23 V 250.93 h -5.69 v 46.836 h 9.78 l 15.01,-37.969 z m -68.78,-5 h -15.34 v 5 h 36.37 v -5 h -15.35 V 250.93 h -5.68 v 41.836" /></g></g></g></g></svg>
